<mxfile host="Electron" agent="Mozilla/5.0 (Windows NT 10.0; Win64; x64) AppleWebKit/537.36 (KHTML, like Gecko) draw.io/25.0.1 Chrome/128.0.6613.186 Electron/32.2.6 Safari/537.36" version="25.0.1">
  <diagram name="Page-1" id="dSvuV1CNV-9eOFvfghRx">
    <mxGraphModel dx="893" dy="-553" grid="1" gridSize="10" guides="1" tooltips="1" connect="1" arrows="1" fold="1" page="1" pageScale="1" pageWidth="850" pageHeight="1100" math="0" shadow="0">
      <root>
        <mxCell id="0" />
        <mxCell id="1" parent="0" />
        <mxCell id="VqtLqSN2PKeOcX4HlBF0-1" value="" style="rounded=0;whiteSpace=wrap;html=1;movable=1;resizable=1;rotatable=1;deletable=1;editable=1;locked=0;connectable=1;" parent="1" vertex="1">
          <mxGeometry x="20" y="1128" width="1110" height="472" as="geometry" />
        </mxCell>
        <mxCell id="1auMRzvWkJfkG_q45dpW-9" value="" style="rounded=1;whiteSpace=wrap;html=1;arcSize=5;dashed=1;strokeColor=#000000;fillColor=#CCFFCC;" parent="1" vertex="1">
          <mxGeometry x="857" y="1463" width="256" height="122.27" as="geometry" />
        </mxCell>
        <mxCell id="1auMRzvWkJfkG_q45dpW-8" value="" style="rounded=1;whiteSpace=wrap;html=1;arcSize=5;dashed=1;strokeColor=#000000;fillColor=#FFCCFF;" parent="1" vertex="1">
          <mxGeometry x="451" y="1464" width="239" height="122" as="geometry" />
        </mxCell>
        <mxCell id="YVLUfFIhRKJOg-uTzJRr-610" value="&lt;b&gt;&lt;font face=&quot;Comic Sans MS&quot;&gt;&amp;nbsp;&lt;u&gt;&lt;font style=&quot;font-size: 15px;&quot;&gt;Module 8: Java Database Connectivity (JDBC)&lt;/font&gt;&lt;/u&gt;&lt;/font&gt;&lt;/b&gt;&lt;div&gt;&lt;font face=&quot;Comic Sans MS&quot;&gt;&lt;b&gt;&amp;nbsp;Author: Tristan Sim&lt;/b&gt;&lt;/font&gt;&lt;/div&gt;" style="rounded=0;whiteSpace=wrap;html=1;fillColor=#E6E6E6;fontColor=#000000;strokeColor=#000000;align=left;" parent="1" vertex="1">
          <mxGeometry x="34" y="1138" width="395" height="49.75" as="geometry" />
        </mxCell>
        <mxCell id="YVLUfFIhRKJOg-uTzJRr-615" value="" style="dashed=0;outlineConnect=0;html=1;align=center;labelPosition=center;verticalLabelPosition=bottom;verticalAlign=top;shape=mxgraph.weblogos.java" parent="1" vertex="1">
          <mxGeometry x="392" y="1142.25" width="23.71" height="41.25" as="geometry" />
        </mxCell>
        <mxCell id="sqyHCtOkdObhh9j7qGfr-1" value="&lt;b style=&quot;color: rgb(0, 0, 0); font-family: &amp;quot;Comic Sans MS&amp;quot;; text-align: left;&quot;&gt;Application&lt;/b&gt;&lt;div&gt;&lt;b style=&quot;color: rgb(0, 0, 0); font-family: &amp;quot;Comic Sans MS&amp;quot;; text-align: left;&quot;&gt;&amp;nbsp;(Java Program)&lt;/b&gt;&lt;/div&gt;" style="rounded=1;whiteSpace=wrap;html=1;arcSize=12;fillColor=#FFFF00;strokeColor=#000000;" parent="1" vertex="1">
          <mxGeometry x="140" y="1208" width="180" height="40" as="geometry" />
        </mxCell>
        <mxCell id="sqyHCtOkdObhh9j7qGfr-2" value="" style="rounded=1;whiteSpace=wrap;html=1;arcSize=3;fillColor=#E5CCFF;strokeColor=#000000;dashed=1;" parent="1" vertex="1">
          <mxGeometry x="41.5" y="1261" width="380" height="246" as="geometry" />
        </mxCell>
        <mxCell id="sqyHCtOkdObhh9j7qGfr-3" value="&lt;div style=&quot;&quot;&gt;&lt;span style=&quot;background-color: initial;&quot;&gt;&lt;font face=&quot;Comic Sans MS&quot; color=&quot;#000000&quot;&gt;&lt;b&gt;JBDC API&lt;/b&gt;&lt;/font&gt;&lt;/span&gt;&lt;/div&gt;&lt;div style=&quot;&quot;&gt;&lt;span style=&quot;background-color: initial;&quot;&gt;&lt;font face=&quot;Comic Sans MS&quot; color=&quot;#000000&quot;&gt;&lt;b&gt;(Interface that allows Java Programs to Interact with SQL)&lt;/b&gt;&lt;/font&gt;&lt;/span&gt;&lt;/div&gt;" style="rounded=1;whiteSpace=wrap;html=1;arcSize=10;fillColor=#00FFFF;strokeColor=#000000;align=center;" parent="1" vertex="1">
          <mxGeometry x="100" y="1279" width="260" height="55" as="geometry" />
        </mxCell>
        <mxCell id="sqyHCtOkdObhh9j7qGfr-6" value="&lt;div style=&quot;&quot;&gt;&lt;font face=&quot;Comic Sans MS&quot; color=&quot;#000000&quot;&gt;&lt;b&gt;Driver Manager&amp;nbsp;&lt;/b&gt;&lt;/font&gt;&lt;/div&gt;&lt;div style=&quot;&quot;&gt;&lt;font face=&quot;Comic Sans MS&quot; color=&quot;#000000&quot;&gt;&lt;b&gt;(Allows Database Specific Drivers to Connect to Applications of the Databse)&lt;/b&gt;&lt;/font&gt;&lt;/div&gt;" style="rounded=1;whiteSpace=wrap;html=1;arcSize=10;fillColor=#CC99FF;strokeColor=#000000;align=center;" parent="1" vertex="1">
          <mxGeometry x="100" y="1356" width="260" height="55" as="geometry" />
        </mxCell>
        <mxCell id="sqyHCtOkdObhh9j7qGfr-8" value="&lt;font face=&quot;Comic Sans MS&quot; color=&quot;#000000&quot;&gt;&lt;b&gt;MS&lt;/b&gt;&lt;/font&gt;&lt;div&gt;&lt;font face=&quot;Comic Sans MS&quot; color=&quot;#000000&quot;&gt;&lt;b&gt;SQL&lt;/b&gt;&lt;/font&gt;&lt;/div&gt;" style="shape=cylinder3;whiteSpace=wrap;html=1;boundedLbl=1;backgroundOutline=1;size=6.142822265625;fillColor=#FF8000;strokeColor=#000000;" parent="1" vertex="1">
          <mxGeometry x="90" y="1522" width="60" height="50" as="geometry" />
        </mxCell>
        <mxCell id="sqyHCtOkdObhh9j7qGfr-9" value="&lt;font face=&quot;Comic Sans MS&quot; color=&quot;#000000&quot;&gt;&lt;b&gt;Oracle&lt;/b&gt;&lt;/font&gt;&lt;div&gt;&lt;font face=&quot;Comic Sans MS&quot; color=&quot;#000000&quot;&gt;&lt;b&gt;SQL&lt;/b&gt;&lt;/font&gt;&lt;/div&gt;" style="shape=cylinder3;whiteSpace=wrap;html=1;boundedLbl=1;backgroundOutline=1;size=6.142822265625;fillColor=#FF8000;strokeColor=#000000;" parent="1" vertex="1">
          <mxGeometry x="200" y="1522" width="60" height="50" as="geometry" />
        </mxCell>
        <mxCell id="sqyHCtOkdObhh9j7qGfr-10" value="&lt;font face=&quot;Comic Sans MS&quot; color=&quot;#000000&quot;&gt;&lt;b&gt;MySQL&lt;/b&gt;&lt;/font&gt;" style="shape=cylinder3;whiteSpace=wrap;html=1;boundedLbl=1;backgroundOutline=1;size=6.142822265625;fillColor=#FF8000;strokeColor=#000000;" parent="1" vertex="1">
          <mxGeometry x="310" y="1522" width="60" height="50" as="geometry" />
        </mxCell>
        <mxCell id="sqyHCtOkdObhh9j7qGfr-11" value="&lt;div style=&quot;&quot;&gt;&lt;font face=&quot;Comic Sans MS&quot; color=&quot;#000000&quot;&gt;&lt;b&gt;MS SQL Driver&lt;/b&gt;&lt;/font&gt;&lt;/div&gt;" style="rounded=1;whiteSpace=wrap;html=1;arcSize=10;fillColor=#CCFF99;strokeColor=#000000;align=center;" parent="1" vertex="1">
          <mxGeometry x="90" y="1441" width="60" height="55" as="geometry" />
        </mxCell>
        <mxCell id="sqyHCtOkdObhh9j7qGfr-12" value="&lt;div style=&quot;&quot;&gt;&lt;font face=&quot;Comic Sans MS&quot; color=&quot;#000000&quot;&gt;&lt;b&gt;Oracle&lt;/b&gt;&lt;/font&gt;&lt;div&gt;&lt;font face=&quot;Comic Sans MS&quot; color=&quot;#000000&quot;&gt;&lt;b&gt;SQL&lt;/b&gt;&lt;/font&gt;&lt;/div&gt;&lt;div&gt;&lt;font face=&quot;Comic Sans MS&quot; color=&quot;#000000&quot;&gt;&lt;b&gt;Driver&lt;/b&gt;&lt;/font&gt;&lt;/div&gt;&lt;/div&gt;" style="rounded=1;whiteSpace=wrap;html=1;arcSize=10;fillColor=#CCFF99;strokeColor=#000000;align=center;" parent="1" vertex="1">
          <mxGeometry x="200" y="1441" width="60" height="55" as="geometry" />
        </mxCell>
        <mxCell id="sqyHCtOkdObhh9j7qGfr-13" value="&lt;div style=&quot;&quot;&gt;&lt;font face=&quot;Comic Sans MS&quot; color=&quot;#000000&quot;&gt;&lt;b&gt;MySQL&lt;/b&gt;&lt;/font&gt;&lt;/div&gt;&lt;div style=&quot;&quot;&gt;&lt;font face=&quot;Comic Sans MS&quot; color=&quot;#000000&quot;&gt;&lt;b&gt;Driver&lt;/b&gt;&lt;/font&gt;&lt;/div&gt;" style="rounded=1;whiteSpace=wrap;html=1;arcSize=10;fillColor=#CCFF99;strokeColor=#000000;align=center;" parent="1" vertex="1">
          <mxGeometry x="310" y="1441" width="60" height="55" as="geometry" />
        </mxCell>
        <mxCell id="sqyHCtOkdObhh9j7qGfr-14" value="" style="endArrow=none;startArrow=classic;html=1;rounded=0;strokeColor=#000000;entryX=0.5;entryY=1;entryDx=0;entryDy=0;exitX=0.5;exitY=0;exitDx=0;exitDy=0;strokeWidth=2;endFill=0;" parent="1" source="sqyHCtOkdObhh9j7qGfr-3" target="sqyHCtOkdObhh9j7qGfr-1" edge="1">
          <mxGeometry width="50" height="50" relative="1" as="geometry">
            <mxPoint x="250" y="1450" as="sourcePoint" />
            <mxPoint x="300" y="1400" as="targetPoint" />
          </mxGeometry>
        </mxCell>
        <mxCell id="sqyHCtOkdObhh9j7qGfr-15" value="" style="endArrow=none;startArrow=classic;html=1;rounded=0;strokeColor=#000000;entryX=0.5;entryY=1;entryDx=0;entryDy=0;exitX=0.5;exitY=0;exitDx=0;exitDy=0;strokeWidth=2;endFill=0;" parent="1" source="sqyHCtOkdObhh9j7qGfr-6" target="sqyHCtOkdObhh9j7qGfr-3" edge="1">
          <mxGeometry width="50" height="50" relative="1" as="geometry">
            <mxPoint x="240" y="1281" as="sourcePoint" />
            <mxPoint x="230" y="1326" as="targetPoint" />
          </mxGeometry>
        </mxCell>
        <mxCell id="sqyHCtOkdObhh9j7qGfr-17" value="" style="endArrow=none;startArrow=classic;html=1;rounded=0;strokeColor=#000000;entryX=0.25;entryY=1;entryDx=0;entryDy=0;exitX=0.5;exitY=0;exitDx=0;exitDy=0;strokeWidth=2;endFill=0;" parent="1" source="sqyHCtOkdObhh9j7qGfr-11" target="sqyHCtOkdObhh9j7qGfr-6" edge="1">
          <mxGeometry width="50" height="50" relative="1" as="geometry">
            <mxPoint x="240" y="1366" as="sourcePoint" />
            <mxPoint x="240" y="1336" as="targetPoint" />
          </mxGeometry>
        </mxCell>
        <mxCell id="sqyHCtOkdObhh9j7qGfr-18" value="" style="endArrow=none;startArrow=classic;html=1;rounded=0;strokeColor=#000000;entryX=0.508;entryY=0.985;entryDx=0;entryDy=0;exitX=0.541;exitY=0.013;exitDx=0;exitDy=0;strokeWidth=2;entryPerimeter=0;exitPerimeter=0;endFill=0;" parent="1" source="sqyHCtOkdObhh9j7qGfr-12" target="sqyHCtOkdObhh9j7qGfr-6" edge="1">
          <mxGeometry width="50" height="50" relative="1" as="geometry">
            <mxPoint x="130" y="1451" as="sourcePoint" />
            <mxPoint x="175" y="1421" as="targetPoint" />
          </mxGeometry>
        </mxCell>
        <mxCell id="sqyHCtOkdObhh9j7qGfr-19" value="" style="endArrow=none;startArrow=classic;html=1;rounded=0;strokeColor=#000000;entryX=0.75;entryY=1;entryDx=0;entryDy=0;exitX=0.5;exitY=0;exitDx=0;exitDy=0;strokeWidth=2;endFill=0;" parent="1" source="sqyHCtOkdObhh9j7qGfr-13" target="sqyHCtOkdObhh9j7qGfr-6" edge="1">
          <mxGeometry width="50" height="50" relative="1" as="geometry">
            <mxPoint x="242" y="1452" as="sourcePoint" />
            <mxPoint x="242" y="1420" as="targetPoint" />
          </mxGeometry>
        </mxCell>
        <mxCell id="sqyHCtOkdObhh9j7qGfr-22" value="" style="endArrow=none;startArrow=classic;html=1;rounded=0;strokeColor=#000000;entryX=0.5;entryY=1;entryDx=0;entryDy=0;exitX=0.5;exitY=0;exitDx=0;exitDy=0;strokeWidth=2;endFill=0;exitPerimeter=0;" parent="1" source="sqyHCtOkdObhh9j7qGfr-8" target="sqyHCtOkdObhh9j7qGfr-11" edge="1">
          <mxGeometry width="50" height="50" relative="1" as="geometry">
            <mxPoint x="130" y="1451" as="sourcePoint" />
            <mxPoint x="175" y="1421" as="targetPoint" />
          </mxGeometry>
        </mxCell>
        <mxCell id="sqyHCtOkdObhh9j7qGfr-23" value="" style="endArrow=none;startArrow=classic;html=1;rounded=0;strokeColor=#000000;entryX=0.5;entryY=1;entryDx=0;entryDy=0;exitX=0.5;exitY=0;exitDx=0;exitDy=0;strokeWidth=2;endFill=0;exitPerimeter=0;" parent="1" source="sqyHCtOkdObhh9j7qGfr-9" target="sqyHCtOkdObhh9j7qGfr-12" edge="1">
          <mxGeometry width="50" height="50" relative="1" as="geometry">
            <mxPoint x="130" y="1551" as="sourcePoint" />
            <mxPoint x="130" y="1506" as="targetPoint" />
          </mxGeometry>
        </mxCell>
        <mxCell id="sqyHCtOkdObhh9j7qGfr-24" value="" style="endArrow=none;startArrow=classic;html=1;rounded=0;strokeColor=#000000;entryX=0.5;entryY=1;entryDx=0;entryDy=0;strokeWidth=2;endFill=0;" parent="1" source="sqyHCtOkdObhh9j7qGfr-10" target="sqyHCtOkdObhh9j7qGfr-13" edge="1">
          <mxGeometry width="50" height="50" relative="1" as="geometry">
            <mxPoint x="240" y="1551" as="sourcePoint" />
            <mxPoint x="240" y="1506" as="targetPoint" />
          </mxGeometry>
        </mxCell>
        <mxCell id="sqyHCtOkdObhh9j7qGfr-26" value="&lt;b style=&quot;font-family: &amp;quot;Comic Sans MS&amp;quot;;&quot;&gt;Class&lt;/b&gt;" style="rounded=0;whiteSpace=wrap;html=1;fillColor=#003366;fontColor=#FFFFFF;strokeColor=none;align=center;spacing=12;fontSize=15;" parent="1" vertex="1">
          <mxGeometry x="450" y="1138.9999999999995" width="135" height="32.5" as="geometry" />
        </mxCell>
        <mxCell id="sqyHCtOkdObhh9j7qGfr-27" value="&lt;font face=&quot;Comic Sans MS&quot;&gt;&lt;b&gt;Description&lt;/b&gt;&lt;/font&gt;" style="rounded=0;whiteSpace=wrap;html=1;fillColor=#003366;fontColor=#FFFFFF;strokeColor=none;align=center;spacing=12;fontSize=15;" parent="1" vertex="1">
          <mxGeometry x="592" y="1139.3399999999997" width="520" height="32.5" as="geometry" />
        </mxCell>
        <mxCell id="sqyHCtOkdObhh9j7qGfr-28" value="&lt;font face=&quot;Comic Sans MS&quot;&gt;&lt;b&gt;DriverManager&lt;/b&gt;&lt;/font&gt;" style="rounded=0;whiteSpace=wrap;html=1;fillColor=#99FFFF;fontColor=#000000;strokeColor=none;align=center;spacing=12;fontSize=12;" parent="1" vertex="1">
          <mxGeometry x="450" y="1175.3899999999999" width="135" height="30" as="geometry" />
        </mxCell>
        <mxCell id="sqyHCtOkdObhh9j7qGfr-29" value="&lt;font face=&quot;Comic Sans MS&quot;&gt;&lt;b&gt;Manages the JDBC Drivers and Establish Database Connections&lt;/b&gt;&lt;/font&gt;" style="rounded=0;whiteSpace=wrap;html=1;fillColor=#99FFFF;fontColor=#000000;strokeColor=none;align=center;spacing=12;fontSize=12;" parent="1" vertex="1">
          <mxGeometry x="592" y="1175.3899999999999" width="520" height="30" as="geometry" />
        </mxCell>
        <mxCell id="sqyHCtOkdObhh9j7qGfr-30" value="&lt;font face=&quot;Comic Sans MS&quot;&gt;&lt;b&gt;Connection&lt;/b&gt;&lt;/font&gt;" style="rounded=0;whiteSpace=wrap;html=1;fillColor=#99FFFF;fontColor=#000000;strokeColor=none;align=center;spacing=12;fontSize=12;" parent="1" vertex="1">
          <mxGeometry x="450" y="1209.6" width="135" height="30" as="geometry" />
        </mxCell>
        <mxCell id="sqyHCtOkdObhh9j7qGfr-31" value="&lt;font face=&quot;Comic Sans MS&quot;&gt;&lt;b&gt;Represents a Session with a Specific Database&lt;/b&gt;&lt;/font&gt;" style="rounded=0;whiteSpace=wrap;html=1;fillColor=#99FFFF;fontColor=#000000;strokeColor=none;align=center;spacing=12;fontSize=12;" parent="1" vertex="1">
          <mxGeometry x="592" y="1209.6" width="520" height="30" as="geometry" />
        </mxCell>
        <mxCell id="sqyHCtOkdObhh9j7qGfr-32" value="&lt;font face=&quot;Comic Sans MS&quot;&gt;&lt;b&gt;Statement&lt;/b&gt;&lt;/font&gt;" style="rounded=0;whiteSpace=wrap;html=1;fillColor=#99FFFF;fontColor=#000000;strokeColor=none;align=center;spacing=12;fontSize=12;" parent="1" vertex="1">
          <mxGeometry x="450" y="1243.63" width="135" height="30" as="geometry" />
        </mxCell>
        <mxCell id="sqyHCtOkdObhh9j7qGfr-33" value="&lt;font face=&quot;Comic Sans MS&quot;&gt;&lt;b&gt;Used to Execute Static SQL Queries&lt;/b&gt;&lt;/font&gt;" style="rounded=0;whiteSpace=wrap;html=1;fillColor=#99FFFF;fontColor=#000000;strokeColor=none;align=center;spacing=12;fontSize=12;" parent="1" vertex="1">
          <mxGeometry x="592" y="1243.63" width="520" height="30" as="geometry" />
        </mxCell>
        <mxCell id="sqyHCtOkdObhh9j7qGfr-34" value="&lt;font face=&quot;Comic Sans MS&quot;&gt;&lt;b&gt;PreparedStatements&lt;/b&gt;&lt;/font&gt;" style="rounded=0;whiteSpace=wrap;html=1;fillColor=#99FFFF;fontColor=#000000;strokeColor=none;align=center;spacing=12;fontSize=12;" parent="1" vertex="1">
          <mxGeometry x="450" y="1277.7599999999998" width="135" height="30" as="geometry" />
        </mxCell>
        <mxCell id="sqyHCtOkdObhh9j7qGfr-35" value="&lt;font face=&quot;Comic Sans MS&quot;&gt;&lt;b&gt;Precompiled SQL Statement, used for Dynamic Queries with Paraemeters.&lt;/b&gt;&lt;/font&gt;" style="rounded=0;whiteSpace=wrap;html=1;fillColor=#99FFFF;fontColor=#000000;strokeColor=none;align=center;spacing=12;fontSize=12;" parent="1" vertex="1">
          <mxGeometry x="592" y="1277.7599999999998" width="520" height="30" as="geometry" />
        </mxCell>
        <mxCell id="sqyHCtOkdObhh9j7qGfr-46" value="&lt;font face=&quot;Comic Sans MS&quot;&gt;&lt;b&gt;CallableStatement&lt;/b&gt;&lt;/font&gt;" style="rounded=0;whiteSpace=wrap;html=1;fillColor=#99FFFF;fontColor=#000000;strokeColor=none;align=center;spacing=12;fontSize=12;" parent="1" vertex="1">
          <mxGeometry x="450" y="1311.76" width="135" height="30" as="geometry" />
        </mxCell>
        <mxCell id="sqyHCtOkdObhh9j7qGfr-47" value="&lt;font face=&quot;Comic Sans MS&quot;&gt;&lt;b&gt;Used to Execute stored Procedures in the Database&lt;/b&gt;&lt;/font&gt;" style="rounded=0;whiteSpace=wrap;html=1;fillColor=#99FFFF;fontColor=#000000;strokeColor=none;align=center;spacing=12;fontSize=12;" parent="1" vertex="1">
          <mxGeometry x="592" y="1311.76" width="520" height="30" as="geometry" />
        </mxCell>
        <mxCell id="sqyHCtOkdObhh9j7qGfr-48" value="&lt;font face=&quot;Comic Sans MS&quot;&gt;&lt;b&gt;ResultSet&lt;/b&gt;&lt;/font&gt;" style="rounded=0;whiteSpace=wrap;html=1;fillColor=#99FFFF;fontColor=#000000;strokeColor=none;align=center;spacing=12;fontSize=12;" parent="1" vertex="1">
          <mxGeometry x="450" y="1345.7900000000002" width="135" height="30" as="geometry" />
        </mxCell>
        <mxCell id="sqyHCtOkdObhh9j7qGfr-49" value="&lt;font face=&quot;Comic Sans MS&quot;&gt;&lt;b&gt;Represents the Results Set of a Query, allowing Navigation Through the Rows&lt;/b&gt;&lt;/font&gt;" style="rounded=0;whiteSpace=wrap;html=1;fillColor=#99FFFF;fontColor=#000000;strokeColor=none;align=center;spacing=12;fontSize=12;" parent="1" vertex="1">
          <mxGeometry x="592" y="1345.7900000000002" width="520" height="30" as="geometry" />
        </mxCell>
        <mxCell id="sqyHCtOkdObhh9j7qGfr-50" value="&lt;font face=&quot;Comic Sans MS&quot;&gt;&lt;b&gt;SQLException&lt;/b&gt;&lt;/font&gt;" style="rounded=0;whiteSpace=wrap;html=1;fillColor=#99FFFF;fontColor=#000000;strokeColor=none;align=center;spacing=12;fontSize=12;" parent="1" vertex="1">
          <mxGeometry x="450" y="1379.9199999999998" width="135" height="30" as="geometry" />
        </mxCell>
        <mxCell id="sqyHCtOkdObhh9j7qGfr-51" value="&lt;font face=&quot;Comic Sans MS&quot;&gt;&lt;b&gt;Handles SQL-related Exceptions during Database Operations.&lt;/b&gt;&lt;/font&gt;" style="rounded=0;whiteSpace=wrap;html=1;fillColor=#99FFFF;fontColor=#000000;strokeColor=none;align=center;spacing=12;fontSize=12;" parent="1" vertex="1">
          <mxGeometry x="592" y="1379.9199999999998" width="520" height="30" as="geometry" />
        </mxCell>
        <mxCell id="o-I24Xv51yc2bbLJ96qr-1" value="&lt;font face=&quot;Comic Sans MS&quot; color=&quot;#000000&quot;&gt;&lt;b&gt;Oracle&lt;/b&gt;&lt;/font&gt;&lt;div&gt;&lt;font face=&quot;Comic Sans MS&quot; color=&quot;#000000&quot;&gt;&lt;b&gt;SQL&lt;/b&gt;&lt;/font&gt;&lt;/div&gt;" style="shape=cylinder3;whiteSpace=wrap;html=1;boundedLbl=1;backgroundOutline=1;size=6.142822265625;fillColor=#FF8000;strokeColor=#000000;" parent="1" vertex="1">
          <mxGeometry x="1048" y="1495" width="58" height="48" as="geometry" />
        </mxCell>
        <mxCell id="o-I24Xv51yc2bbLJ96qr-2" value="" style="image;points=[];aspect=fixed;html=1;align=center;shadow=0;dashed=0;image=img/lib/allied_telesis/computer_and_terminals/Laptop.svg;" parent="1" vertex="1">
          <mxGeometry x="542.6999999999999" y="1469.79" width="42.6" height="43.21" as="geometry" />
        </mxCell>
        <mxCell id="o-I24Xv51yc2bbLJ96qr-3" value="" style="outlineConnect=0;dashed=0;verticalLabelPosition=bottom;verticalAlign=top;align=center;html=1;shape=mxgraph.aws3.internet_3;fillColor=#00FFFF;gradientColor=none;strokeColor=#000000;" parent="1" vertex="1">
          <mxGeometry x="704.22" y="1461" width="65.25" height="43" as="geometry" />
        </mxCell>
        <mxCell id="o-I24Xv51yc2bbLJ96qr-4" value="" style="shape=cylinder3;whiteSpace=wrap;html=1;boundedLbl=1;backgroundOutline=1;size=6.142822265625;fillColor=#FFFF00;strokeColor=#000000;rotation=90;" parent="1" vertex="1">
          <mxGeometry x="764.13" y="1439.85" width="20.25" height="160.25" as="geometry" />
        </mxCell>
        <mxCell id="o-I24Xv51yc2bbLJ96qr-6" value="Single-Sign-On (SSO) + Multi-Factor Authentication (MFA) Service" style="rounded=1;whiteSpace=wrap;html=1;fontColor=#FFFFFF;fontFamily=Comic Sans MS;fontStyle=1;fillColor=#003366;strokeColor=#000000;" parent="1" vertex="1">
          <mxGeometry x="540.44" y="1421" width="447.56" height="24.46" as="geometry" />
        </mxCell>
        <mxCell id="o-I24Xv51yc2bbLJ96qr-7" value="VPN Client" style="rounded=1;whiteSpace=wrap;html=1;fontColor=#000000;fontFamily=Comic Sans MS;fontStyle=1;strokeColor=#000000;fillColor=#CC99FF;" parent="1" vertex="1">
          <mxGeometry x="593" y="1510.46" width="77" height="20.04" as="geometry" />
        </mxCell>
        <mxCell id="o-I24Xv51yc2bbLJ96qr-8" value="" style="endArrow=classic;startArrow=classic;html=1;rounded=0;strokeWidth=2;strokeColor=#000000;" parent="1" edge="1">
          <mxGeometry width="50" height="50" relative="1" as="geometry">
            <mxPoint x="630" y="1506" as="sourcePoint" />
            <mxPoint x="629" y="1448" as="targetPoint" />
          </mxGeometry>
        </mxCell>
        <mxCell id="o-I24Xv51yc2bbLJ96qr-9" value="" style="endArrow=classic;startArrow=classic;html=1;rounded=0;strokeWidth=2;strokeColor=#000000;" parent="1" edge="1">
          <mxGeometry width="50" height="50" relative="1" as="geometry">
            <mxPoint x="933.92" y="1490.23" as="sourcePoint" />
            <mxPoint x="932.92" y="1448.23" as="targetPoint" />
          </mxGeometry>
        </mxCell>
        <mxCell id="o-I24Xv51yc2bbLJ96qr-10" value="" style="endArrow=classic;startArrow=classic;html=1;rounded=0;strokeWidth=2;strokeColor=#000000;" parent="1" edge="1">
          <mxGeometry width="50" height="50" relative="1" as="geometry">
            <mxPoint x="905" y="1520" as="sourcePoint" />
            <mxPoint x="669" y="1520" as="targetPoint" />
          </mxGeometry>
        </mxCell>
        <mxCell id="o-I24Xv51yc2bbLJ96qr-11" value="&lt;font style=&quot;font-size: 11px;&quot;&gt;Next-Generation Firewall&lt;/font&gt;&lt;div&gt;&lt;font style=&quot;font-size: 11px;&quot;&gt;(VPN Gateway)&lt;/font&gt;&lt;/div&gt;" style="rounded=1;whiteSpace=wrap;html=1;arcSize=14;fontColor=#000000;fontFamily=Comic Sans MS;fontStyle=1;strokeColor=#000000;fillColor=#FFCCCC;" parent="1" vertex="1">
          <mxGeometry x="863" y="1543" width="142.85" height="36" as="geometry" />
        </mxCell>
        <mxCell id="o-I24Xv51yc2bbLJ96qr-12" value="" style="endArrow=classic;startArrow=classic;html=1;rounded=0;strokeWidth=2;strokeColor=#000000;" parent="1" edge="1">
          <mxGeometry width="50" height="50" relative="1" as="geometry">
            <mxPoint x="1043" y="1520" as="sourcePoint" />
            <mxPoint x="957" y="1519.98" as="targetPoint" />
          </mxGeometry>
        </mxCell>
        <mxCell id="1auMRzvWkJfkG_q45dpW-1" value="" style="shape=image;verticalLabelPosition=bottom;labelBackgroundColor=default;verticalAlign=top;aspect=fixed;imageAspect=0;image=data:image/png,iVBORw0KGgoAAAANSUhEUgAAAHcAAABvCAMAAADhYq9OAAAAAXNSR0IArs4c6QAAAARnQU1BAACxjwv8YQUAAADYUExURQAAAP8AAP8AAP8AAP8AAP8AAP8AAP8AAP8AAP8AAP8AAP8AAP8AAP8AAP8AAP8AAP8AAP8AAP8AAP8AAP8AAP8AAP8AAP8AAP8AAP8AAP8AAP8AAP8AAP8AAP8AAP8AAP8AAP8AAP8AAP8AAP8AAP8AAP8AAP8AAP8AAP8AAP8AAP8AAP8AAP8AAP8AAP8AAP8AAP8AAP8AAP8AAP8AAP8AAP8AAP8AAP8AAP8AAP8AAP8AAP8AAP8AAP8AAP8AAP8AAP8AAP8AAP8AAP8AAP8AAP8AAP8AAPN3TdgAAABIdFJOUwBIgKe/3//nt1gQQJ/vr2Awz1CP1ygIcCD3OJfr+OFq9u2x84fw8cv5yHnqvvVbw53k27ne/Jbj5qXTtOmr/di9gtKkGHjHaP8OLMYAAAAJcEhZcwAAFxEAABcRAcom8z8AAAVpSURBVGhDvZprW+I4FICzCim2IrU6WAQUBFkFZr3MrO79qrP//x/tk7Y5Jz1NSlJT3k8pnONr0qS5UMZUvjs47HS5f4JO7+AoLKmQ6LhP4/1yMqBKxljco2EtcJpQ7RkNaYmTUmuH+6hszvknRXtKv22Rfgze/dVW0JVNva97K+nl2ph+3jr5eOoon3TPomgI7e+NKLpQu1AgFAle949ogkeicxQdMMYO4aqb0livDE/AFDA2HMmLfrtaxobY1pdKM1eeYd5JoY4HbCyL5zSqBWDE9hg0urjXbRNJWZdBm0c0qAWGUjZiMOe69aqG/yXcYCYL3O1xkfIL+pENYFNKbkymV7rlww4+7r2e8fmV273x4g2n4lHjeps/7mU3Imnh2NYevMssa+HWvTx4B7Ms7faaflGHB29SjMWFyz324I1vi8SZaSOgwYM3WsnM7+lXZtCGJUcuIPPOvm+hDUuOZOMoJ6DfGUEblhy5h0w+sq4w2rDkRhpAJucz+q0JtGHJjSVMaeIO2z620IYlN5RVKed8Qr82gDYsOZFMIFGwsBzDaMOSC6HSqwRTy4cWJDT0rjeQl7OkEXogvpk3rJyE3NMQPRDfzLv9DGkFfRqiB+IbedfwaAZWNEYPxDfxDsp9OWMP3ngOOUj73rjSpwSte/VavqFxeiDe1fuDOh0otDyO1poulXFGI/VAvJt3adLeWm7aIcHFG95Ux23BpsV5IdwatfyBBhuABHtvuBU7Ij0TPHOsBzLsveZG5rNHGmwCUqy9j2Yt71ve3QbetWHcCvqWk28Db0zneZUn6+q6esNnCKsyd9gRQpKdt7RopdjvFly9aV0rV8bu+gv5QAGSrLxnlWWNCh1ESc0RHCRZeXUTPUI3R4PPX8knCCTZeOPybPBj6apa3zWfGM+XIMnGuy71qlu5z5dckfD76r8CQJKNt7Q3WD1cqZfV8/JoUu1qACTZeNXePOsNKg/M0jlD9huYcV8KORbeVO1W5yGeL0juXpTo7Dk+Nz3BIMfCq3arSaScawArqHF4s8jCTPMipNh4lfo+yHM6wupRjNl4uckP06amZQ8kWHjxwIi/xgYv56+b/qafWzmf+/AmuGIWq8YBXJnx4oWDOf6TaEx5PliH8cEBERbeEKb87PmXmtayCnMfXibv7yxbV2QH3jsw7logwsYrH1BF632FFCPGiQEibLw/FxHFnu8FUkzkDaMDQmy8SfYsgAkgLC7NGLuVm1feUbnn2/kWwi/kDyAQYuOVE9JNcZnQmZAwMjazo3eQt6z0si+QpCUwzQquXpYPWfCGlalQZVSzF4YgO29e4S1cy56mpaa6rt68wk94XdPSddV19kaiguqZnHkD8VxTXWcv+1Ws6JRhmZqW1K/mxXMTb/gb51P1VP1FPy3NzWNIAHG2Xhbfcf67+oF2WloYV7A5EGjtFeLSMrEY1CVWj3U3t5mXRdM/Sj9fVCs836Vt5GXhn6X1+IBum4K1+rUWiHXxMnahTjRkATB6Mi2qFNCGJWf+glzOF/O/d7WxAG1Ycqb45VnUNdgap9wSaMOSM1E+H44W/6xt6irw4g1nk/nm+d9r06ZEgxcvi1PbekrQBo+7NxrTBvh+Dvy+6NBazZEyjm8T2v6U+hE+SVmXHcti8TZlq7xL2Tf2nyzuoaGHsNM6Zil4OzTMO7h1Thj7BhdjGueZIzCNhup7GLzjOhxdGB6g6KTU6JwH78pb0V55Gyjv64+yrkQOaPS/w30Mclifr3SV10f3g3zxuvQKSPuMLmXjX+rXpC2hnBtHbdxUA6Xj6nRf9ziARs4Zvu+lyuPqE+Jt3Ppd7hmmgGSsvmPvl9PDgVrX/wFOK7Ee1fvAuAAAAABJRU5ErkJggg==;" parent="1" vertex="1">
          <mxGeometry x="915.05" y="1501.73" width="36.74" height="34.27" as="geometry" />
        </mxCell>
        <mxCell id="1auMRzvWkJfkG_q45dpW-2" value="IPSec / SSL Tunnel" style="rounded=0;whiteSpace=wrap;html=1;fontColor=#000000;fontFamily=Comic Sans MS;fontStyle=1;strokeColor=#000000;fillColor=#FFFF00;" parent="1" vertex="1">
          <mxGeometry x="714.26" y="1536" width="120" height="20" as="geometry" />
        </mxCell>
        <mxCell id="1auMRzvWkJfkG_q45dpW-3" value="&lt;font color=&quot;#000000&quot;&gt;TCP / 1521&lt;/font&gt;" style="rounded=0;whiteSpace=wrap;html=1;strokeColor=none;fontFamily=Comic Sans MS;fontStyle=1;fillColor=none;" parent="1" vertex="1">
          <mxGeometry x="965" y="1493" width="70" height="20" as="geometry" />
        </mxCell>
        <mxCell id="1auMRzvWkJfkG_q45dpW-4" value="Internet" style="rounded=0;whiteSpace=wrap;html=1;fillColor=#99FFFF;fontColor=#000000;fontFamily=Comic Sans MS;fontStyle=1;strokeColor=#000000;" parent="1" vertex="1">
          <mxGeometry x="777.22" y="1472.5" width="61" height="20" as="geometry" />
        </mxCell>
        <mxCell id="1auMRzvWkJfkG_q45dpW-5" value="&lt;font style=&quot;font-size: 11px;&quot;&gt;Java&lt;/font&gt;&lt;div&gt;&lt;font style=&quot;font-size: 11px;&quot;&gt;(SQL Client)&lt;/font&gt;&lt;/div&gt;" style="rounded=1;whiteSpace=wrap;html=1;arcSize=11;spacing=7;spacingBottom=2;fontColor=#000000;fontFamily=Comic Sans MS;fontStyle=1;strokeColor=#000000;fillColor=#FF3333;" parent="1" vertex="1">
          <mxGeometry x="457" y="1504" width="79.64" height="34.54" as="geometry" />
        </mxCell>
        <mxCell id="1auMRzvWkJfkG_q45dpW-6" value="" style="endArrow=classic;startArrow=classic;html=1;rounded=0;strokeWidth=2;strokeColor=#000000;" parent="1" edge="1">
          <mxGeometry width="50" height="50" relative="1" as="geometry">
            <mxPoint x="589" y="1521" as="sourcePoint" />
            <mxPoint x="542" y="1521" as="targetPoint" />
          </mxGeometry>
        </mxCell>
        <mxCell id="1auMRzvWkJfkG_q45dpW-7" value="Will Assign a Static Route&lt;div&gt;(Split/Full Tunnel)&lt;/div&gt;" style="rounded=1;whiteSpace=wrap;html=1;arcSize=14;fontColor=#000000;fontFamily=Comic Sans MS;fontStyle=1;strokeColor=#000000;fillColor=#CC99FF;" parent="1" vertex="1">
          <mxGeometry x="457" y="1543" width="212" height="36" as="geometry" />
        </mxCell>
        <mxCell id="1auMRzvWkJfkG_q45dpW-10" value="Client" style="rounded=0;whiteSpace=wrap;html=1;fontColor=#000000;fontFamily=Comic Sans MS;fontStyle=1;strokeColor=#000000;fillColor=#FF66FF;" parent="1" vertex="1">
          <mxGeometry x="457" y="1470.79" width="80" height="20" as="geometry" />
        </mxCell>
        <mxCell id="1auMRzvWkJfkG_q45dpW-11" value="On-Premises" style="rounded=0;whiteSpace=wrap;html=1;fontColor=#000000;fontFamily=Comic Sans MS;fontStyle=1;strokeColor=#000000;fillColor=#00FF00;" parent="1" vertex="1">
          <mxGeometry x="995" y="1470" width="110" height="20" as="geometry" />
        </mxCell>
      </root>
    </mxGraphModel>
  </diagram>
</mxfile>
